<?xml version="1.0" standalone="no"?>
<!DOCTYPE svg PUBLIC "-//W3C//DTD SVG 20010904//EN"
 "http://www.w3.org/TR/2001/REC-SVG-20010904/DTD/svg10.dtd">
<svg version="1.0" xmlns="http://www.w3.org/2000/svg"
 width="1280.000000pt" height="1183.000000pt" viewBox="0 0 1280.000000 1183.000000"
 preserveAspectRatio="xMidYMid meet">
<metadata>
Created by potrace 1.15, written by Peter Selinger 2001-2017
</metadata>
<g transform="translate(0.000000,1183.000000) scale(0.100000,-0.100000)"
fill="#000000" stroke="none">
<path d="M7505 11779 c-77 -27 -189 -63 -250 -78 -60 -16 -146 -42 -190 -58
-44 -17 -104 -33 -133 -37 -29 -4 -81 -16 -115 -26 -34 -11 -83 -20 -110 -20
-26 0 -55 -4 -65 -9 -9 -5 -51 -14 -91 -20 -75 -12 -135 -43 -148 -78 -7 -18
55 -74 107 -97 88 -39 306 -118 357 -130 32 -8 105 -28 163 -46 58 -18 121
-33 140 -34 19 -1 45 -7 56 -14 12 -6 59 -16 105 -21 90 -10 120 -18 131 -35
12 -17 9 -112 -4 -141 -9 -20 -8 -31 2 -50 10 -18 11 -51 6 -129 -6 -97 -10
-111 -50 -193 -24 -48 -60 -110 -80 -138 -34 -47 -39 -50 -101 -62 -117 -21
-177 -56 -254 -147 -138 -162 -236 -320 -292 -470 -12 -32 -32 -75 -45 -94
-14 -20 -34 -67 -45 -106 -11 -39 -24 -84 -30 -101 -6 -16 -12 -43 -14 -60 -1
-16 -10 -57 -19 -90 -11 -39 -19 -115 -23 -215 l-5 -155 -56 -95 c-30 -52 -63
-103 -73 -113 -10 -10 -22 -30 -25 -45 -4 -15 -14 -36 -23 -47 -30 -36 -214
-335 -274 -445 -16 -30 -40 -63 -53 -73 -13 -10 -24 -25 -24 -32 0 -7 -7 -26
-15 -42 -9 -15 -20 -40 -25 -55 -11 -33 -123 -118 -154 -118 -40 0 -125 -65
-126 -97 0 -6 -8 -14 -18 -17 -10 -4 -28 -20 -40 -36 -13 -17 -29 -30 -37 -30
-8 0 -15 -5 -15 -11 0 -10 -18 -33 -123 -157 -27 -31 -56 -69 -65 -84 -19 -33
-28 -35 -42 -9 -11 21 13 341 27 364 4 7 8 41 8 77 1 36 10 97 22 135 12 39
32 105 44 148 13 43 27 80 31 83 4 3 8 14 8 24 0 26 103 213 147 268 l35 42
-19 40 c-10 22 -25 40 -35 40 -25 0 -136 88 -170 134 -100 137 -178 252 -178
263 0 6 -8 18 -18 25 -10 7 -36 42 -57 78 -21 36 -46 72 -56 81 -9 8 -27 35
-39 60 -12 24 -40 70 -61 101 -22 32 -39 64 -39 72 0 8 -11 28 -25 44 -13 16
-29 48 -34 71 -5 24 -18 53 -29 64 -27 31 -35 47 -98 214 -60 158 -72 208 -73
290 l-1 52 -59 35 c-68 40 -124 48 -173 24 -40 -20 -138 -53 -233 -79 -38 -10
-83 -25 -100 -31 -16 -7 -38 -11 -48 -10 -10 2 -24 -1 -30 -6 -7 -5 -30 -15
-52 -22 -22 -7 -49 -19 -60 -25 -11 -7 -49 -15 -85 -18 -36 -3 -101 -17 -145
-30 -44 -14 -109 -28 -144 -32 -35 -3 -81 -13 -102 -22 -22 -8 -46 -12 -55 -9
-9 3 -40 -2 -69 -11 -53 -18 -53 -18 -59 -66 -4 -26 -4 -52 -1 -58 15 -24 278
-138 366 -159 30 -7 88 -23 129 -36 41 -12 91 -26 110 -29 56 -10 252 -55 286
-66 17 -5 49 -9 72 -9 29 0 49 -7 68 -24 26 -22 27 -25 14 -55 -7 -18 -19 -38
-25 -45 -7 -6 -34 -50 -60 -96 -27 -47 -104 -179 -172 -294 -69 -115 -154
-265 -190 -334 -36 -69 -75 -134 -88 -144 -12 -9 -39 -50 -60 -90 -21 -40 -53
-93 -71 -118 -82 -116 -177 -339 -211 -500 -60 -278 -76 -533 -43 -661 10 -40
9 -51 -6 -80 -36 -70 -110 -154 -252 -283 -153 -139 -174 -163 -262 -286 -86
-121 -145 -184 -258 -274 -130 -104 -211 -177 -212 -192 0 -5 -13 -20 -30 -32
-16 -13 -30 -28 -30 -34 0 -6 -18 -32 -41 -57 -88 -100 -169 -204 -169 -217 0
-3 -16 -25 -34 -48 -19 -23 -67 -98 -107 -166 -39 -69 -82 -138 -95 -153 -13
-16 -24 -37 -24 -47 0 -10 -5 -22 -10 -25 -6 -4 -44 -77 -86 -163 -41 -86 -80
-165 -85 -174 -5 -10 -9 -25 -9 -34 0 -9 -13 -42 -28 -73 -61 -121 -83 -171
-80 -183 1 -7 -3 -23 -10 -35 -7 -13 -22 -53 -33 -90 -12 -38 -25 -72 -29 -78
-8 -11 -30 -96 -33 -130 -1 -11 -5 -25 -9 -31 -15 -22 -36 -101 -43 -154 -3
-30 -15 -82 -24 -115 -23 -76 -40 -175 -41 -244 0 -29 -4 -61 -9 -70 -14 -26
-21 -179 -22 -481 -1 -225 2 -296 14 -337 12 -43 13 -62 3 -105 -11 -51 -12
-52 -61 -65 -35 -10 -176 -17 -460 -24 -225 -5 -416 -11 -423 -14 -7 -3 -22 1
-32 8 -16 9 -24 9 -40 -1 -11 -6 -39 -12 -63 -12 -54 0 -106 -33 -120 -74 -11
-34 7 -106 27 -106 21 0 67 -75 72 -117 7 -57 -3 -65 -92 -70 -113 -6 -121 -9
-150 -54 -33 -53 -27 -75 36 -141 28 -29 50 -57 50 -63 0 -7 9 -20 20 -30 11
-10 20 -23 20 -30 0 -13 52 -65 66 -65 5 0 30 -29 56 -63 26 -34 61 -75 78
-92 16 -16 30 -34 30 -41 0 -11 39 -56 109 -129 16 -16 73 -82 126 -145 53
-63 118 -140 144 -170 26 -30 74 -89 108 -130 34 -41 82 -95 108 -120 26 -25
63 -70 82 -100 20 -30 62 -80 94 -111 33 -31 59 -62 59 -68 0 -5 9 -15 20 -21
11 -6 20 -17 20 -25 0 -8 17 -31 38 -52 67 -69 218 -248 225 -266 4 -11 16
-21 27 -24 11 -3 20 -10 20 -15 0 -5 22 -33 49 -61 28 -29 59 -74 70 -100 13
-31 29 -51 46 -57 14 -5 25 -14 25 -20 0 -6 21 -21 48 -33 l47 -22 2435 -6
c3241 -9 5894 -25 7442 -46 l497 -6 37 28 c35 27 73 92 74 127 0 9 -32 47 -71
84 -74 72 -179 217 -179 247 0 10 -12 39 -26 65 -49 87 -77 190 -70 259 3 34
12 73 21 87 18 27 85 267 85 305 0 13 9 40 19 60 27 51 109 280 125 349 7 31
32 98 54 147 42 92 72 190 72 232 0 13 11 45 24 71 35 70 159 408 204 557 21
72 53 158 70 192 41 79 82 203 82 242 0 19 12 48 30 73 27 37 30 49 30 114 l0
72 -46 30 c-25 17 -62 33 -83 37 -53 9 -89 49 -91 100 -4 83 -5 82 51 87 83 8
157 81 166 163 10 81 -60 181 -141 204 -34 9 -257 2 -492 -15 -50 -4 -107 -4
-127 0 -48 9 -122 66 -193 151 -33 38 -93 105 -134 150 -42 44 -89 103 -105
130 -38 67 -94 143 -180 245 -40 47 -111 142 -158 212 -47 70 -131 189 -186
263 -56 74 -125 172 -154 218 -30 45 -61 88 -70 96 -9 7 -17 23 -17 34 0 11
-10 30 -22 42 -32 32 -99 132 -168 250 -32 55 -85 137 -118 182 -34 45 -71
101 -83 125 -24 47 -117 205 -134 226 -5 7 -18 22 -27 32 -10 11 -34 52 -54
92 -31 62 -86 150 -175 280 -11 15 -19 32 -19 38 0 6 -20 45 -45 86 -25 40
-45 76 -45 78 0 3 -29 52 -65 109 -36 58 -65 110 -65 116 0 6 -10 28 -23 49
-29 48 -48 82 -93 167 -20 39 -49 88 -64 110 -18 26 -30 60 -35 99 -13 110
-42 151 -134 187 -31 12 -67 31 -80 41 -13 10 -31 18 -41 18 -35 0 -109 33
-147 65 -71 60 -120 179 -223 540 -17 61 -40 135 -50 165 -11 30 -22 75 -25
100 -4 25 -17 86 -30 135 -13 50 -30 126 -38 170 -8 44 -22 116 -31 160 -23
117 -65 470 -79 663 -13 183 -14 290 -4 397 l7 70 -117 40 c-64 21 -124 40
-132 41 -9 1 -43 12 -76 24 -33 13 -78 26 -100 31 -136 25 -280 48 -345 53
-41 3 -97 11 -125 18 l-50 13 -6 65 c-3 36 -4 178 -1 315 4 209 7 259 23 307
16 47 19 87 19 225 0 155 -12 331 -25 395 -8 34 -89 98 -124 97 -14 0 -89 -23
-166 -50z m1118 -2006 c3 -87 14 -212 25 -278 11 -66 23 -160 27 -210 4 -49
15 -133 26 -185 11 -52 24 -124 30 -160 5 -36 18 -92 29 -125 11 -33 24 -89
30 -125 5 -36 16 -87 25 -115 14 -49 36 -130 56 -210 6 -22 10 -48 10 -58 0
-10 12 -41 27 -70 14 -29 29 -72 33 -97 5 -25 22 -84 38 -133 32 -92 32 -117
-2 -117 -30 0 -279 81 -298 96 -8 8 -26 35 -39 61 -13 27 -31 59 -40 73 -10
14 -23 42 -29 62 -7 20 -19 42 -27 48 -7 7 -14 19 -14 27 0 8 -11 28 -25 44
-13 16 -27 45 -31 64 -3 19 -12 39 -20 46 -17 14 -18 58 -2 111 9 32 8 56 -8
136 -16 83 -19 139 -18 392 1 280 2 301 27 410 14 63 35 142 46 174 12 33 21
66 21 75 0 9 7 29 15 45 8 16 14 34 13 40 -2 15 53 136 62 136 4 0 10 -71 13
-157z m-3865 -97 c13 -40 39 -99 58 -130 19 -31 34 -63 34 -71 0 -8 5 -17 10
-20 6 -3 26 -39 45 -80 18 -40 37 -75 42 -76 4 -2 24 -35 43 -72 19 -38 43
-73 52 -78 10 -5 18 -19 18 -30 0 -12 14 -33 30 -47 17 -15 30 -32 30 -39 0
-7 14 -28 30 -46 17 -19 30 -42 30 -50 0 -9 9 -21 21 -27 11 -6 41 -44 66 -83
26 -40 50 -73 55 -75 4 -2 8 -8 8 -14 0 -12 -70 -1 -84 13 -6 5 -24 9 -40 9
-17 0 -85 12 -151 25 -67 15 -174 28 -242 32 -112 5 -122 8 -129 27 -3 12 -9
158 -11 324 -5 303 -5 304 17 324 15 14 20 28 17 44 -2 14 -1 27 4 30 4 2 6
33 2 68 -6 64 1 116 15 116 4 0 17 -33 30 -74z m-397 -488 c3 -187 -3 -353
-13 -359 -5 -3 -49 -11 -96 -18 -48 -6 -106 -21 -129 -33 -40 -20 -73 -19 -73
1 0 5 10 22 23 38 13 15 30 44 37 63 8 19 22 41 32 48 19 14 34 39 94 162 20
41 45 80 54 87 10 7 20 27 24 44 6 34 23 59 37 59 5 0 10 -42 10 -92z m3090
-474 c14 -13 17 -46 19 -217 2 -111 4 -229 4 -262 l1 -60 -100 -7 c-55 -5
-175 -15 -267 -23 -91 -8 -171 -15 -176 -15 -14 0 -68 90 -77 128 -3 17 -24
53 -46 81 -21 27 -39 55 -39 62 0 18 -33 89 -41 89 -14 0 -49 71 -49 99 0 56
87 110 188 116 31 2 86 8 122 14 105 17 137 19 295 14 110 -4 154 -9 166 -19z
m-943 -16 c6 -7 18 -33 28 -58 9 -25 25 -54 34 -65 10 -11 38 -65 64 -119 26
-55 58 -115 72 -133 14 -18 41 -68 60 -109 42 -92 38 -102 -44 -100 -33 1 -80
-6 -112 -17 -30 -10 -71 -20 -90 -22 -19 -2 -73 -13 -120 -25 -47 -12 -116
-28 -155 -36 -38 -8 -88 -23 -110 -34 -53 -26 -85 -26 -85 -2 0 10 36 71 80
136 44 64 80 121 80 125 0 5 14 23 30 41 17 18 30 39 30 47 0 8 9 26 20 40 11
14 20 31 20 38 0 7 14 29 30 50 17 21 30 45 30 55 0 9 8 24 19 34 10 9 27 36
37 59 10 23 27 48 36 55 10 7 18 22 18 33 0 22 13 25 28 7z m1371 -37 c125
-42 157 -51 173 -51 9 0 62 -23 118 -51 108 -54 173 -110 184 -157 10 -39 74
-168 91 -182 8 -7 15 -21 15 -30 0 -16 25 -69 67 -144 11 -19 10 -22 -15 -28
-18 -6 -41 -2 -72 11 -56 24 -318 69 -466 81 -171 13 -183 16 -188 54 -7 44
-11 207 -8 368 2 120 4 137 20 141 9 3 19 5 21 6 2 0 29 -7 60 -18z m1659
-1287 c22 -15 119 -194 105 -194 -4 0 0 -6 8 -12 9 -7 87 -139 174 -293 322
-569 813 -1353 1077 -1722 48 -67 104 -148 125 -181 55 -87 167 -245 242 -341
75 -96 121 -162 121 -174 0 -29 -179 140 -332 313 -41 47 -103 114 -138 150
-34 36 -79 88 -101 117 -21 28 -47 58 -57 65 -10 7 -47 51 -82 98 -35 47 -87
110 -116 140 -29 30 -81 94 -116 141 -34 48 -109 147 -164 220 -255 337 -558
840 -819 1359 -53 104 -62 167 -31 211 9 13 16 31 16 40 0 9 7 19 15 23 8 3
20 17 27 31 13 29 16 30 46 9z m-5203 -226 c19 -19 27 -106 29 -315 1 -190 -2
-234 -13 -238 -7 -3 -82 -10 -165 -16 -134 -9 -292 -20 -481 -34 -33 -3 -91
-11 -130 -19 -38 -9 -104 -21 -145 -27 -41 -7 -86 -16 -100 -22 -23 -8 -46
-13 -169 -36 -27 -5 -60 -17 -74 -26 -13 -8 -31 -13 -40 -9 -9 3 -32 -2 -51
-11 -36 -17 -66 -15 -66 4 0 15 139 178 257 301 184 192 446 410 494 410 14 0
29 3 33 8 4 4 69 14 144 24 135 16 463 21 477 6z m478 -84 c175 -44 201 -53
221 -80 10 -15 15 -29 10 -33 -23 -17 -87 -127 -129 -222 -55 -128 -96 -174
-154 -174 -20 0 -49 8 -63 17 l-26 17 -1 230 c-1 225 4 271 32 271 5 0 54 -12
110 -26z m4555 -25 c-3 -17 0 -29 6 -29 12 0 117 -196 116 -217 0 -7 8 -17 19
-22 10 -6 21 -23 24 -39 3 -16 17 -43 31 -60 15 -16 26 -39 26 -50 0 -11 7
-25 15 -32 8 -7 15 -17 15 -22 0 -5 11 -24 24 -41 30 -40 89 -157 82 -164 -2
-3 -15 12 -29 34 -13 21 -38 53 -56 72 -17 18 -31 38 -31 44 0 5 -9 19 -21 31
-31 32 -89 115 -99 142 -5 13 -14 24 -20 24 -5 0 -19 18 -30 40 -11 22 -25 40
-30 40 -6 0 -10 4 -10 10 0 5 -16 32 -35 59 -40 55 -65 110 -65 143 0 25 48
80 62 71 6 -3 8 -18 6 -34z m9 -364 c51 -71 127 -181 169 -242 42 -62 81 -113
85 -113 5 0 24 -24 43 -52 18 -29 68 -93 110 -142 41 -50 74 -92 71 -94 -8 -8
25 -61 44 -72 11 -5 44 -45 74 -87 30 -43 83 -109 117 -148 34 -38 90 -106
123 -149 33 -44 88 -111 122 -150 33 -39 90 -109 125 -156 35 -47 93 -114 130
-150 36 -36 77 -81 90 -100 34 -49 269 -317 316 -361 22 -19 65 -66 98 -105
61 -72 185 -205 417 -447 131 -137 149 -159 168 -209 l9 -23 -122 0 c-190 -1
-709 -23 -831 -36 -148 -16 -253 -10 -289 16 -16 11 -43 29 -60 40 -45 28
-120 82 -182 133 -29 23 -57 42 -62 42 -6 0 -12 7 -15 15 -4 8 -23 23 -44 34
-21 11 -44 29 -51 40 -7 12 -17 21 -23 21 -7 0 -29 16 -50 35 -22 19 -44 35
-50 35 -6 0 -31 23 -57 50 -25 28 -51 50 -58 50 -6 0 -16 11 -22 25 -6 14 -17
25 -23 25 -14 0 -131 108 -140 129 -3 7 -23 25 -44 40 -22 15 -45 37 -51 50
-6 12 -27 33 -45 46 -33 22 -325 324 -482 497 -74 82 -77 88 -83 144 -8 81 12
376 31 444 8 30 20 105 25 165 6 61 17 121 24 135 14 27 28 87 31 135 5 75 97
393 147 504 15 35 28 72 28 83 0 10 15 33 33 49 l32 30 15 -23 c8 -12 56 -81
107 -153z m-407 -1625 c13 -14 44 -50 68 -80 65 -80 331 -351 410 -417 23 -19
42 -41 42 -49 0 -7 10 -14 23 -16 14 -2 23 -11 25 -25 2 -12 13 -25 25 -29 30
-10 137 -104 137 -121 0 -7 10 -17 23 -22 23 -9 79 -56 146 -122 20 -20 46
-40 58 -43 12 -4 36 -24 54 -44 18 -20 45 -42 59 -48 15 -7 40 -28 55 -48 15
-20 33 -36 41 -36 7 0 25 -11 40 -24 54 -48 64 -56 99 -70 19 -8 35 -22 35
-30 0 -14 -18 -16 -117 -16 -127 0 -285 -20 -329 -42 -16 -7 -46 -36 -68 -64
-58 -73 -72 -73 -219 2 -67 34 -142 73 -167 88 -25 14 -65 36 -90 49 -50 26
-216 117 -300 165 -72 41 -109 80 -121 128 -4 22 -9 154 -9 294 0 140 -5 343
-10 450 -9 193 -9 195 13 218 l22 23 15 -23 c8 -13 26 -34 40 -48z m-2175
-861 c39 -6 135 -14 215 -19 270 -16 335 -26 406 -59 41 -19 63 -35 58 -42 -3
-6 -6 -173 -5 -370 l2 -359 -23 -9 c-17 -7 -33 -3 -60 12 -21 11 -38 24 -38
27 0 4 -16 6 -35 4 -25 -2 -73 15 -177 62 -78 35 -147 64 -153 64 -6 0 -28 9
-50 20 -22 11 -47 20 -56 20 -9 0 -25 11 -35 25 -11 15 -29 25 -44 25 -14 0
-30 4 -35 8 -6 4 -34 16 -64 26 -29 11 -66 32 -81 47 -18 19 -37 29 -56 29
-16 0 -46 11 -66 25 -20 14 -43 25 -51 25 -8 0 -46 19 -83 41 -38 23 -82 48
-99 56 -16 8 -45 25 -64 38 -19 14 -43 25 -53 25 -26 0 -105 47 -138 82 -15
15 -34 28 -43 28 -17 0 -117 58 -129 75 -9 12 -10 67 -2 89 5 14 54 16 448 15
242 0 473 -5 511 -10z m1068 -211 c91 -92 183 -170 228 -193 31 -16 37 -23 27
-33 -9 -9 -6 -12 14 -12 15 0 33 -8 40 -19 7 -10 28 -26 47 -35 18 -10 60 -38
93 -62 33 -24 66 -44 73 -44 7 0 20 -11 29 -25 9 -14 28 -28 42 -31 14 -4 36
-17 49 -30 13 -13 31 -24 39 -24 15 0 160 -73 182 -91 21 -17 108 -60 184 -90
41 -16 95 -40 120 -53 25 -13 65 -29 90 -36 25 -6 82 -27 128 -46 92 -39 330
-101 425 -111 77 -7 97 -17 97 -47 0 -47 -11 -48 -317 -47 -304 1 -357 4 -518
26 -55 8 -143 19 -195 25 -194 23 -428 68 -650 126 -52 14 -113 29 -135 34
-22 5 -71 20 -110 33 l-70 24 3 389 c3 358 6 434 19 434 2 0 32 -28 66 -62z
m204 11 c15 -7 48 -20 72 -31 23 -10 50 -17 60 -15 9 2 50 -13 91 -34 41 -20
82 -39 90 -43 8 -3 22 -10 30 -15 8 -5 49 -24 90 -42 41 -19 87 -46 102 -61
14 -16 35 -28 47 -28 11 0 24 -6 28 -12 16 -26 100 -76 161 -96 38 -13 87 -40
125 -70 34 -28 81 -59 104 -71 23 -12 44 -28 47 -36 3 -8 20 -21 38 -28 18 -8
92 -48 163 -89 122 -71 216 -119 258 -132 25 -8 10 -29 -17 -23 -85 18 -257
72 -284 88 -18 10 -42 19 -52 19 -10 0 -56 16 -102 36 -46 20 -110 47 -143 61
-91 38 -170 80 -184 97 -8 9 -23 16 -34 16 -11 0 -58 23 -105 51 -46 28 -91
52 -99 53 -7 1 -35 18 -61 38 -26 20 -92 64 -147 99 -55 34 -136 91 -180 126
-44 35 -85 63 -92 63 -11 0 -47 42 -67 78 -9 16 23 16 61 1z m976 -105 c24
-17 56 -35 73 -41 17 -6 43 -23 57 -37 14 -14 37 -26 51 -26 13 0 37 -11 53
-24 16 -14 41 -28 56 -31 15 -4 35 -17 45 -29 9 -11 28 -21 42 -21 14 0 41
-12 60 -27 19 -16 45 -28 58 -28 14 0 33 -11 43 -24 11 -14 33 -27 49 -31 17
-4 30 -11 30 -16 0 -17 -59 -9 -116 16 -31 14 -71 25 -89 25 -34 0 -143 34
-159 50 -6 6 -30 10 -54 10 -30 0 -53 7 -75 23 -18 14 -49 24 -72 26 -22 1
-70 14 -106 28 l-66 25 -11 71 c-9 57 -8 77 3 104 l14 33 36 -23 c20 -12 55
-36 78 -53z m-3137 55 c3 -6 31 -22 61 -36 31 -13 70 -35 88 -48 17 -14 39
-25 47 -25 9 0 18 -7 22 -15 3 -9 25 -24 50 -34 24 -11 47 -24 50 -30 4 -6 15
-11 24 -11 9 0 89 -39 177 -85 88 -47 166 -85 173 -85 11 0 68 -35 82 -51 3
-3 14 -5 25 -6 11 0 56 -17 100 -38 88 -41 176 -79 305 -131 47 -19 99 -41
115 -48 17 -8 39 -17 50 -20 11 -3 51 -16 88 -29 116 -41 108 9 107 -660 -2
-673 4 -633 -95 -623 -35 4 -88 18 -117 31 -29 14 -59 25 -66 25 -15 0 -163
60 -177 72 -5 4 -19 8 -32 8 -12 0 -39 7 -60 16 -80 34 -169 75 -183 85 -8 5
-40 21 -70 35 -30 14 -71 34 -91 45 -20 10 -46 19 -57 19 -11 0 -25 7 -33 16
-13 16 -28 25 -131 76 -47 24 -77 42 -163 96 -11 7 -36 20 -55 30 -19 9 -49
27 -67 40 -17 12 -35 22 -40 22 -5 0 -20 11 -33 25 -13 14 -31 25 -39 25 -9 0
-22 9 -29 20 -7 11 -18 20 -26 20 -7 0 -21 9 -30 19 -10 11 -28 22 -42 25 -15
4 -24 14 -24 27 0 11 -7 34 -17 52 -15 29 -15 69 -7 437 5 223 9 450 9 505 0
57 6 116 13 137 7 21 11 42 7 48 -3 5 -3 15 0 20 8 14 82 13 91 -1z m3215
-345 c22 -4 42 -11 45 -15 3 -5 14 -9 25 -9 11 0 37 -9 59 -20 21 -11 71 -24
110 -30 39 -6 87 -17 107 -25 36 -15 285 -78 358 -91 66 -11 75 -25 75 -121
l0 -83 -40 0 c-51 0 -124 17 -175 41 -22 10 -74 30 -115 45 -41 15 -88 37
-103 50 -16 13 -41 27 -55 30 -15 4 -31 12 -37 18 -5 7 -23 19 -40 28 -49 25
-197 114 -239 145 -42 30 -62 61 -31 50 9 -4 34 -10 56 -13z m2960 -84 c84
-26 179 -113 179 -163 0 -17 -129 -37 -230 -36 -80 0 -127 16 -153 51 -17 22
-19 35 -13 91 7 57 10 66 29 70 54 11 130 5 188 -13z m-512 -5 c31 -7 31 -7
31 -73 0 -107 -4 -115 -59 -109 -57 6 -199 57 -240 86 -33 24 -37 37 -21 73
10 22 17 23 135 26 68 2 137 1 154 -3z m-1151 -47 c29 -29 0 -73 -56 -84 -22
-4 -52 2 -101 21 -107 42 -92 61 54 68 33 2 67 4 76 5 8 1 20 -3 27 -10z m476
6 c42 -6 50 -11 71 -48 22 -37 23 -47 14 -80 l-11 -38 -126 7 c-99 5 -130 10
-139 23 -16 20 -17 114 -1 130 13 13 116 16 192 6z m-593 -174 c43 -13 74 -29
84 -43 15 -21 14 -22 -12 -28 -16 -4 -66 -7 -112 -8 -90 -1 -110 9 -111 56 0
46 49 53 151 23z m1037 -2 c-5 -15 -68 -24 -68 -10 0 15 13 22 43 22 18 0 27
-4 25 -12z m-3445 -202 c18 -2 57 -16 87 -30 30 -14 66 -26 82 -26 15 0 67
-12 115 -26 49 -15 107 -28 130 -29 23 -2 72 -12 110 -23 37 -11 102 -23 143
-26 41 -3 125 -15 185 -26 123 -22 347 -37 681 -47 151 -4 224 -10 224 -17 0
-29 -14 -56 -30 -61 -10 -3 -45 -32 -77 -63 -32 -32 -83 -76 -113 -99 -64 -49
-506 -283 -534 -283 -10 0 -35 -9 -55 -20 -40 -22 -472 -170 -496 -170 -9 0
-41 -9 -73 -19 -31 -11 -100 -27 -152 -36 -52 -10 -101 -23 -109 -29 -16 -12
-20 -13 -143 -22 l-88 -7 -2 249 c-4 308 -1 564 8 711 l6 111 34 -4 c19 -2 49
-6 67 -8z m-4533 -466 c591 -24 681 -30 810 -50 74 -12 146 -28 158 -37 53
-33 64 -131 37 -318 -8 -55 -15 -132 -15 -172 0 -39 -5 -73 -10 -75 -16 -5
-274 10 -365 22 -44 5 -147 17 -230 25 -82 9 -213 24 -290 35 -77 11 -153 20
-168 20 -15 0 -53 9 -85 21 -31 12 -126 45 -210 75 -84 30 -165 60 -181 68
-16 9 -31 13 -34 9 -4 -3 -52 15 -109 40 -57 25 -141 60 -188 77 -46 17 -89
35 -96 40 -6 6 -14 7 -17 4 -4 -4 -30 5 -59 19 -29 14 -115 51 -190 82 -76 32
-138 61 -138 65 0 9 92 16 485 35 540 26 592 27 895 15z m2516 -45 c23 -19 47
-35 53 -35 6 0 15 -9 20 -19 6 -10 23 -23 38 -29 16 -5 59 -31 98 -56 38 -25
77 -46 87 -46 10 0 18 -4 18 -9 0 -6 49 -34 110 -63 60 -29 112 -60 115 -69 3
-8 22 -21 43 -28 20 -7 78 -32 127 -56 174 -81 206 -95 218 -95 6 0 41 -14 77
-31 70 -33 188 -77 233 -86 76 -15 -19 -38 -223 -53 -74 -5 -168 -13 -207 -16
-80 -7 -187 9 -215 33 -9 8 -22 12 -27 8 -6 -3 -38 8 -70 25 -33 18 -64 29
-69 26 -5 -3 -17 3 -27 14 -9 10 -31 22 -47 26 -39 8 -163 71 -178 90 -7 8
-18 14 -25 14 -7 0 -18 7 -25 15 -7 8 -18 15 -26 15 -15 0 -64 32 -116 76 -33
27 -36 34 -47 120 -12 99 -15 247 -4 257 12 13 26 7 69 -28z m-3815 -155 c69
-33 153 -67 187 -75 34 -9 80 -27 104 -40 24 -13 81 -35 128 -49 94 -29 229
-87 230 -98 0 -5 -10 -8 -22 -8 -55 0 -341 41 -418 59 -47 11 -137 25 -200 31
-116 11 -201 30 -254 57 l-29 15 7 86 c8 108 16 117 89 96 29 -9 109 -42 178
-74z m-853 25 c25 -29 29 -82 10 -107 -8 -11 -31 -18 -63 -20 l-50 -2 -3 68
c-2 38 0 76 3 84 9 23 75 8 103 -23z m351 19 c10 -9 -1 -140 -13 -152 -8 -8
-27 -10 -59 -6 -45 6 -47 8 -47 38 0 17 -3 48 -6 68 -6 35 -4 38 27 51 29 12
84 13 98 1z m3250 -15 c41 -11 89 -19 107 -19 18 0 35 -4 38 -9 6 -10 125 -51
148 -51 7 0 24 -9 38 -20 14 -11 35 -20 47 -20 32 0 254 -108 280 -137 12 -12
30 -23 40 -23 10 0 41 -19 68 -43 74 -64 132 -94 153 -79 9 6 41 26 71 43 52
31 55 31 67 14 8 -11 14 -22 14 -26 0 -5 15 -11 34 -15 19 -3 44 -17 57 -30
12 -13 31 -24 42 -24 11 0 41 -12 66 -28 25 -15 73 -38 106 -51 142 -56 110
-60 -436 -52 -261 4 -480 11 -487 15 -6 4 -127 11 -269 17 -273 11 -285 13
-318 63 -25 38 -30 148 -10 269 9 60 17 138 17 173 2 73 -15 68 127 33z
m-3964 -45 c3 -21 13 -48 22 -61 20 -31 3 -53 -42 -53 -45 0 -66 33 -63 100
l2 50 37 0 c34 0 37 -2 44 -36z m-310 12 c16 -12 18 -19 10 -52 -14 -55 -31
-53 -44 6 -6 28 -11 53 -11 55 0 10 27 4 45 -9z"/>
</g>
</svg>
